<svg width="55px" height="55px" viewBox="0 20.006 68.751 50.601" xmlns="http://www.w3.org/2000/svg" xmlns:xlink="http://www.w3.org/1999/xlink" version="1.1" transform="matrix(1,0,0,-1,0,0)"><path fill="#FF0000" d="M0 20.006q0.207 7.975 4.4 16.294 3.918 7.907 10.794 14.988 6.737 6.875 14.988 11.688 -5.912 4.606 -12.444 6.257l-0.069 0.963q2.887 -0.344 5.707 -1.1l0.344 -0.069q5.294 -1.238 10.657 -3.781 1.857 0.963 3.507 1.65 6.807 3.094 14.025 3.712V69.576q-6.943 -1.719 -13.062 -6.669 8.182 -4.743 14.85 -11.619 6.807 -7.013 10.725 -14.919 4.125 -8.319 4.331 -16.363l-8.938 3.438 -3.094 1.031 -8.938 2.682q0.069 0.825 0.069 1.513 0 7.493 -3.507 15.675 -3.644 8.319 -9.763 14.643 -5.912 -6.325 -9.419 -14.507 -3.438 -8.043 -3.438 -15.4 0 -0.893 0.069 -1.581l-8.938 -2.612 -2.887 -1.031z"></path></svg>